<svg width="10" height="8" viewBox="0 0 10 8" fill="none" xmlns="http://www.w3.org/2000/svg">
<path d="M1.31285 6.67142H2.71285V1.83142L2.81285 1.24142L2.41285 1.71142L1.31285 2.50142L0.932849 1.99142L3.13285 0.291423H3.49285V6.67142H4.86285V7.41142H1.31285V6.67142ZM9.14207 2.00142C9.14207 2.35476 9.0754 2.71809 8.94207 3.09142C8.8154 3.45809 8.6454 3.82809 8.43207 4.20142C8.2254 4.57476 7.99207 4.94142 7.73207 5.30142C7.47207 5.65476 7.21207 5.99142 6.95207 6.31142L6.46207 6.74142V6.78142L7.10207 6.67142H9.28207V7.41142H5.30207V7.12142C5.44873 6.96809 5.6254 6.77809 5.83207 6.55142C6.03873 6.32476 6.25207 6.07476 6.47207 5.80142C6.69873 5.52142 6.91873 5.22809 7.13207 4.92142C7.35207 4.60809 7.54873 4.29142 7.72207 3.97142C7.90207 3.65142 8.0454 3.33476 8.15207 3.02142C8.25873 2.70809 8.31207 2.41142 8.31207 2.13142C8.31207 1.80476 8.21873 1.53476 8.03207 1.32142C7.8454 1.10142 7.56207 0.991423 7.18207 0.991423C6.92873 0.991423 6.68207 1.04476 6.44207 1.15142C6.20207 1.25142 5.9954 1.36809 5.82207 1.50142L5.49207 0.931423C5.7254 0.731423 6.00207 0.574756 6.32207 0.461422C6.64207 0.348089 6.9854 0.291423 7.35207 0.291423C7.63873 0.291423 7.89207 0.334756 8.11207 0.421422C8.33207 0.501422 8.51873 0.618089 8.67207 0.771422C8.8254 0.924756 8.94207 1.10809 9.02207 1.32142C9.10207 1.52809 9.14207 1.75476 9.14207 2.00142Z" fill="white"/>
</svg>
