<svg width="300" height="37" viewBox="0 0 300 37" fill="none" xmlns="http://www.w3.org/2000/svg"><path d="m9 10 2.1 6.5H18l-5.6 4 2.2 6.5L9 23l-5.6 4 2.2-6.5-5.6-4h6.9L9 10ZM34 10l2.1 6.5H43l-5.6 4 2.2 6.5-5.6-4-5.6 4 2.2-6.5-5.6-4h6.9L34 10ZM59 10l2.1 6.5H68l-5.6 4 2.2 6.5-5.6-4-5.6 4 2.2-6.5-5.6-4h6.9L59 10Z" fill="#83B3D3"/><rect x="140" width="160" height="37" rx="4" fill="#F2F2F2"/><path d="M173.962 13.912c.405-.096.842-.16 1.312-.192.469-.032.933-.048 1.392-.048.49 0 .986.048 1.488.144.512.096.976.272 1.392.528.416.256.752.608 1.008 1.056.266.448.4 1.0187.4 1.712 0 .6827-.123 1.2587-.368 1.728-.246.4693-.571.8533-.976 1.152-.406.288-.87.496-1.392.624-.523.128-1.062.192-1.616.192h-.656c-.128-.0107-.256-.0213-.384-.032-.128-.0107-.219-.0213-.272-.032V25h-1.328V13.912Zm2.736.912c-.278 0-.544.0053-.8.016-.256.0107-.459.0373-.608.08v4.64c.053.0213.138.0373.256.048.117 0 .24.0053.368.016h.624c.362 0 .72-.032 1.072-.096.362-.0747.688-.2027.976-.384.288-.1813.517-.4373.688-.768.181-.3307.272-.752.272-1.264 0-.4373-.086-.8-.256-1.088-.16-.2987-.379-.5333-.656-.704-.267-.1813-.571-.3093-.912-.384-.342-.0747-.683-.112-1.024-.112Zm6.201-1.024h6.096v1.184h-4.768v3.664h4.368v1.184h-4.368v3.984h4.848V25h-6.176V13.8Zm15.426 3.616.096-1.28h-.064l-.688 1.312L192.261 25h-.784V13.8h1.328v7.68l-.112 1.264h.064l.704-1.312 5.408-7.632h.784V25h-1.328v-7.584Zm-4.08-6.336c.043.3947.192.6987.448.912.256.2133.598.32 1.024.32.427 0 .763-.1067 1.008-.32.256-.2133.411-.512.464-.896l1.136.272c-.117.576-.389 1.0347-.816 1.376-.416.3307-1.018.496-1.808.496-.757 0-1.381-.144-1.872-.432-.48-.2987-.762-.768-.848-1.408l1.264-.32Zm15.355 3.904h-3.488V25h-1.328V14.984h-3.488V13.8h8.304v1.184Zm8.491 2.432.096-1.28h-.064l-.688 1.312L212.027 25h-.784V13.8h1.328v7.68l-.112 1.264h.064l.704-1.312 5.408-7.632h.784V25h-1.328v-7.584Zm10.746 2.448h-5.376V25h-1.328V13.8h1.328v4.88h5.376V13.8h1.328V25h-1.328v-5.136Zm10.046-4.88h-4.672V25h-1.328V13.8h6v1.184Zm1.175 2.832c0-.288.08-.512.24-.672.17-.1707.394-.256.672-.256.288 0 .517.0853.688.256.17.16.256.384.256.672 0 .2773-.086.5013-.256.672-.171.1707-.4.256-.688.256-.278 0-.502-.0853-.672-.256-.16-.1707-.24-.3947-.24-.672Zm0 6.448c0-.288.08-.512.24-.672.17-.1707.394-.256.672-.256.288 0 .517.0853.688.256.17.16.256.384.256.672 0 .2773-.086.5013-.256.672-.171.1707-.4.256-.688.256-.278 0-.502-.0853-.672-.256-.16-.1707-.24-.3947-.24-.672Zm7.397-1.936c0-.672.176-1.2533.528-1.744.352-.5013.902-.9547 1.648-1.36-.266-.16-.517-.3253-.752-.496-.224-.1813-.426-.384-.608-.608-.17-.224-.309-.4747-.416-.752-.096-.2773-.144-.5973-.144-.96 0-.416.07-.7947.208-1.136.15-.3413.358-.6347.624-.88.278-.2453.603-.4373.976-.576.384-.1387.816-.208 1.296-.208.448 0 .854.064 1.216.192.363.128.667.304.912.528.256.224.454.4907.592.8.139.3093.208.6507.208 1.024 0 .608-.138 1.1467-.416 1.616-.277.4587-.736.912-1.376 1.36.278.16.539.336.784.528.256.192.475.4053.656.64.192.2347.342.5013.448.8.107.288.16.6187.16.992 0 .4587-.074.88-.224 1.264-.149.3733-.368.6987-.656.976-.288.2667-.64.48-1.056.64-.416.1493-.89.224-1.424.224-.512 0-.965-.0747-1.36-.224-.394-.1493-.73-.352-1.008-.608-.266-.256-.469-.5547-.608-.896-.138-.352-.208-.7307-.208-1.136Zm5.296-.16c0-.32-.064-.5973-.192-.832-.128-.2453-.298-.464-.512-.656-.202-.2027-.437-.384-.704-.544-.266-.16-.544-.3147-.832-.464-.65.3627-1.114.768-1.392 1.216-.277.448-.416.8747-.416 1.28 0 .256.043.5013.128.736.086.2347.214.4373.384.608.171.1707.379.3093.624.416.256.096.55.144.88.144.267 0 .523-.0373.768-.112.246-.0853.459-.2027.64-.352.192-.16.342-.3573.448-.592.118-.2453.176-.528.176-.848Zm-3.792-5.792c0 .2987.059.5653.176.8.118.224.272.4267.464.608.203.1813.432.352.688.512.256.1493.523.2933.8.432.48-.3733.832-.7413 1.056-1.104.235-.3627.352-.7627.352-1.2 0-.544-.17-.96-.512-1.248-.33-.2987-.73-.448-1.2-.448-.288 0-.544.048-.768.144-.224.096-.416.2187-.576.368-.16.1493-.282.3253-.368.528-.074.192-.112.3947-.112.608Zm6.911 7.936c0-.256.085-.464.256-.624.171-.16.389-.24.656-.24.331 0 .597.1173.8.352.213.2347.32.576.32 1.024 0 .384-.053.72-.16 1.008-.107.288-.245.5333-.416.736-.171.2133-.357.384-.56.512-.203.1387-.405.24-.608.304l-.4-.624c.384-.1493.667-.384.848-.704.192-.3093.288-.624.288-.944-.096.032-.187.048-.272.048-.213 0-.395-.0693-.544-.208-.139-.1493-.208-.3627-.208-.64Zm3.642-7.12c0-.512.074-.9867.224-1.424.149-.4373.368-.816.656-1.136.288-.32.645-.5707 1.072-.752.437-.1813.944-.272 1.52-.272 1.088 0 1.936.352 2.544 1.056.608.704.912 1.696.912 2.976 0 1.2053-.139 2.2613-.416 3.168-.267.896-.64 1.6533-1.12 2.272-.48.6187-1.051 1.104-1.712 1.456-.651.3413-1.36.56-2.128.656l-.288-1.024c.618-.096 1.173-.2773 1.664-.544.501-.2667.928-.6027 1.28-1.008.362-.4053.656-.864.88-1.376.224-.5227.378-1.088.464-1.696-.288.3413-.608.5813-.96.72-.342.128-.795.192-1.36.192-.438 0-.854-.0693-1.248-.208-.384-.1493-.726-.3627-1.024-.64-.299-.2773-.534-.6187-.704-1.024-.171-.4053-.256-.8693-.256-1.392Zm1.328-.128c0 .7573.197 1.328.592 1.712.405.3733.933.56 1.584.56.522 0 .97-.0853 1.344-.256.373-.1707.64-.3947.8-.672.021-.1387.032-.2613.032-.368v-.336c0-.384-.048-.752-.144-1.104-.086-.3627-.219-.6827-.4-.96-.182-.288-.422-.512-.72-.672-.288-.16-.63-.24-1.024-.24-.651 0-1.158.208-1.52.624-.363.4053-.544.976-.544 1.712Z" fill="#333"/></svg>